<?xml version="1.0" encoding="iso-8859-1"?>
<!-- Generator: Adobe Illustrator 19.0.0, SVG Export Plug-In . SVG Version: 6.00 Build 0)  -->
<svg xmlns="http://www.w3.org/2000/svg" xmlns:xlink="http://www.w3.org/1999/xlink" version="1.1" id="Capa_1" x="0px" y="0px" viewBox="0 0 512 512" style="enable-background:new 0 0 512 512;" xml:space="preserve" width="512px" height="512px">
<g>
	<g>
		<path d="M301,0h-90c-24.814,0-45,20.186-45,45c0,24.814,20.186,45,45,45h90c24.814,0,45-20.186,45-45C346,20.186,325.814,0,301,0z    " fill="#dddddd"/>
	</g>
</g>
<g>
	<g>
		<path d="M406,30h-31.518c0.989,4.849,1.518,9.864,1.518,15c0,41.353-33.647,75-75,75h-90c-41.353,0-75-33.647-75-75    c0-5.136,0.529-10.151,1.518-15H106c-24.814,0-45,20.186-45,45v392c0,24.814,20.186,45,45,45h300c24.814,0,45-20.186,45-45V75    C451,50.186,430.814,30,406,30z M206.607,417.606l-45,45c-5.859,5.859-15.352,5.859-21.211,0l-15-15    c-5.861-5.86-5.861-15.352-0.001-21.211c5.859-5.859,15.352-5.859,21.211,0l4.395,4.395l34.395-34.395    c5.859-5.859,15.352-5.859,21.211,0C212.466,402.254,212.466,411.747,206.607,417.606z M206.607,296.606l-45,45    c-5.859,5.859-15.352,5.859-21.211,0l-15-15c-5.861-5.86-5.861-15.352-0.001-21.211c5.859-5.859,15.352-5.859,21.211,0    l4.395,4.395l34.395-34.395c5.859-5.859,15.352-5.859,21.211,0C212.466,281.254,212.466,290.747,206.607,296.606z     M206.607,175.606l-45,45c-2.93,2.93-6.768,4.395-10.605,4.395s-7.676-1.465-10.605-4.395l-15-15    c-5.862-5.86-5.862-15.352-0.002-21.211c5.859-5.859,15.352-5.859,21.211,0l4.395,4.395l34.395-34.395    c5.859-5.859,15.352-5.859,21.211,0C212.466,160.254,212.466,169.747,206.607,175.606z M376,452H256c-8.291,0-15-6.709-15-15    c0-8.291,6.709-15,15-15h120c8.291,0,15,6.709,15,15C391,445.291,384.291,452,376,452z M376,331H256c-8.291,0-15-6.709-15-15    c0-8.291,6.709-15,15-15h120c8.291,0,15,6.709,15,15C391,324.291,384.291,331,376,331z M376,210H256c-8.291,0-15-6.709-15-15    s6.709-15,15-15h120c8.291,0,15,6.709,15,15S384.291,210,376,210z" fill="#dddddd"/>
	</g>
</g>
<g>
</g>
<g>
</g>
<g>
</g>
<g>
</g>
<g>
</g>
<g>
</g>
<g>
</g>
<g>
</g>
<g>
</g>
<g>
</g>
<g>
</g>
<g>
</g>
<g>
</g>
<g>
</g>
<g>
</g>
</svg>
